<svg xmlns="http://www.w3.org/2000/svg" class="icon" viewBox="0 0 1024 1024" width="200" height="200" t="1598583692719" version="1.1" p-id="990"><path d="M 607.486 602.869 h -63.9985 v -63.9985 a 31.9993 31.9993 0 0 0 -63.9985 0 v 63.9985 h -63.9985 a 31.9993 31.9993 0 0 0 0 63.9985 h 63.9985 v 63.9985 a 31.9993 31.9993 0 0 0 63.9985 0 v -63.9985 h 63.9985 a 31.9993 31.9993 0 0 0 0 -63.9985 Z" p-id="991" /><path d="M 819.321 71.0409 h -127.997 L 670.205 18.5621 A 31.9993 31.9993 0 0 0 641.406 0.00256 H 380.932 a 31.9993 31.9993 0 0 0 -29.4393 18.5596 l -23.6795 51.8388 h -127.997 A 91.5179 91.5179 0 0 0 110.218 159.999 v 773.742 A 91.5179 91.5179 0 0 0 203.656 1023.98 h 615.666 a 91.5179 91.5179 0 0 0 93.4378 -88.9579 V 159.999 a 91.5179 91.5179 0 0 0 -93.4378 -88.9579 Z M 401.411 64.0011 H 622.206 l 47.3589 104.318 H 354.052 Z m 447.99 869.74 a 27.5194 27.5194 0 0 1 -29.4393 24.9594 H 203.656 a 27.5194 27.5194 0 0 1 -29.4393 -24.9594 V 159.999 a 27.5194 27.5194 0 0 1 29.4393 -25.5994 H 302.213 l -23.6795 52.4788 a 31.9993 31.9993 0 0 0 23.6795 45.4389 h 415.35 a 31.9993 31.9993 0 0 0 29.4393 -45.4389 l -23.6795 -52.4788 h 95.9978 a 27.5194 27.5194 0 0 1 29.4393 25.5994 Z" p-id="992" /></svg>