<svg xmlns="http://www.w3.org/2000/svg" class="icon" viewBox="0 0 1024 1024" width="200" height="200" t="1601004590930" p-id="7498" version="1.1"><path d="M 472.8 756.2 c 0 -75.2 35.5 -143.5 91.1 -187 c -3.2 1.6 -6.9 2.6 -10.6 2.6 H 296.5 c -12.7 0 -23.3 -10.6 -23.3 -23.3 s 10.6 -23.3 23.3 -23.3 h 256.3 c 12.7 0 23.3 10.6 23.3 23.3 c 0 6.4 -2.6 11.7 -6.4 15.9 c 37.1 -27.5 82.6 -43.4 131.9 -43.4 c 61.4 0 126 19.1 167.4 58.3 V 101.1 c 0 -20.7 -16.4 -37.1 -37.1 -37.1 H 163 c -20.7 0 -37.1 16.4 -37.1 37.1 v 798.6 c 0 20.7 16.4 37.1 37.1 37.1 h 394 c -53.5 -41.9 -84.2 -107 -84.2 -180.6 Z M 296.5 237.7 h 399.3 c 12.7 0 23.3 10.6 23.3 23.3 c 0 12.7 -10.6 23.3 -23.3 23.3 H 296.5 c -12.7 0 -23.3 -10.6 -23.3 -23.3 c 0 -12.7 10.6 -23.3 23.3 -23.3 Z m 0 144 h 399.3 c 12.7 0 23.3 10.6 23.3 23.3 c 0 12.7 -10.6 23.3 -23.3 23.3 H 296.5 c -12.7 0 -23.3 -10.6 -23.3 -23.3 c 0 -12.7 10.6 -23.3 23.3 -23.3 Z" p-id="7499" /><path d="M 569.7 564.5 l -6.4 4.8 c 2.7 -1.1 4.9 -2.7 6.4 -4.8 Z M 711.7 553.9 c -111.7 0 -202.8 90.6 -202.8 202.8 c 0 111.7 90.6 202.8 202.8 202.8 c 111.7 0 202.8 -90.6 202.8 -202.8 s -91.1 -202.8 -202.8 -202.8 Z m 107.2 182 L 796 747.2 c -7.2 4 -13.3 9.7 -17.7 16.7 L 729 850.8 c -0.6 1.2 -1.3 2.2 -2.3 3 c -3.8 3.3 -9.6 2.9 -12.9 -1 l -36.9 -37.1 l -77.9 50.6 l 52.7 -75.8 l -32.1 -32.3 c -1.1 -0.9 -1.9 -2.1 -2.5 -3.4 c -1.8 -4.5 0.4 -9.6 4.8 -11.4 l 89.8 -46.5 c 7 -4.1 12.5 -10.4 15.8 -17.8 l 9.7 -26 c 0.4 -1.8 1.4 -3.4 2.9 -4.5 c 3.3 -2.5 8 -1.8 10.5 1.5 l 70.8 71.1 c 1.2 1 2 2.2 2.6 3.6 c 1.5 4.5 -0.7 9.4 -5.1 11.1 Z" p-id="7500" /></svg>