<svg xmlns="http://www.w3.org/2000/svg" class="icon" viewBox="0 0 1024 1024" width="200" height="200" t="1601004221010" p-id="2382" version="1.1"><path d="M 258.711 193.037 l 511.977 0 l 0 63.9962 L 258.711 257.033 L 258.711 193.037 Z M 257.004 321.656 l 511.976 0 l 0 63.9962 l -511.976 0 L 257.004 321.656 Z M 257.004 449.642 l 131.305 0 l 0 63.9972 L 257.004 513.64 L 257.004 449.642 Z M 257.004 577.639 l 57.9455 0 l 0 63.9972 l -57.9455 0 L 257.004 577.639 Z M 898.682 0 L 130.718 0 C 95.3742 0 66.7215 28.6527 66.7215 63.9972 l 0 895.957 c 0 35.3435 28.6527 63.9962 63.9962 63.9962 l 299.389 -0.327986 l 0 -63.9962 l -299.389 0.327986 l 0 -895.957 L 898.683 63.9972 l 0 422.379 l 63.9962 0 L 962.679 63.9972 C 962.678 28.6527 934.021 0 898.682 0 L 898.682 0 Z" p-id="2383" /><path d="M 891.355 1011.45 L 671.928 758.695 l -49.0289 46.752 L 495.45 670.567 l 134.647 -128.409 l 127.449 134.88 l -46.666 44.5131 L 949.587 955.928 c 15.2193 16.1053 14.5174 41.5852 -1.56293 56.9145 C 931.957 1028.18 906.575 1027.56 891.355 1011.45 Z M 780.528 657.427 l -129.737 -137.304 c -9.51058 -10.0636 -9.0796 -25.9969 0.971957 -35.5814 s 25.8979 -9.1906 35.4214 0.873962 l 129.737 137.316 c 9.51058 10.0646 9.0796 25.9969 -0.971957 35.5814 C 805.897 667.885 790.051 667.503 780.528 657.427 Z M 472.468 690.178 l 129.75 137.304 c 9.51058 10.0636 9.0796 25.9969 -0.971957 35.5814 c -10.0516 9.58458 -25.9109 9.1906 -35.4214 -0.873962 l -129.75 -137.304 c -9.51058 -10.0766 -9.0676 -25.9969 0.971957 -35.5814 C 447.098 679.72 462.957 680.114 472.468 690.178 Z" p-id="2384" /></svg>