<svg xmlns="http://www.w3.org/2000/svg" class="icon" viewBox="0 0 1024 1024" width="200" height="200" t="1598583748845" version="1.1" p-id="2455"><path d="M 102.4 870.4 V 102.4 h 716.8 v 218.112 a 418.304 418.304 0 0 1 102.4 41.984 V 102.4 a 102.4 102.4 0 0 0 -102.4 -102.4 H 102.4 a 102.4 102.4 0 0 0 -102.4 102.4 v 768 a 102.4 102.4 0 0 0 102.4 102.4 h 294.912 a 401.408 401.408 0 0 1 -59.904 -102.4 Z" p-id="2456" /><path d="M 716.8 307.2 a 51.2 51.2 0 0 0 -51.2 -51.2 H 256 a 51.2 51.2 0 0 0 0 102.4 h 409.6 a 51.2 51.2 0 0 0 51.2 -51.2 Z M 256 460.8 a 51.2 51.2 0 0 0 0 102.4 h 102.4 a 51.2 51.2 0 0 0 0 -102.4 Z" p-id="2457" /><path d="M 716.8 409.6 a 307.2 307.2 0 1 0 307.2 307.2 a 307.2 307.2 0 0 0 -307.2 -307.2 Z m 0 512 a 204.8 204.8 0 1 1 204.8 -204.8 a 204.8 204.8 0 0 1 -204.8 204.8 Z" p-id="2458" /><path d="M 715.776 563.2 l -35.84 111.104 H 563.2 l 94.208 68.608 l -35.84 110.592 l 94.208 -68.608 l 94.208 68.608 l -35.84 -110.592 l 94.208 -68.608 h -116.224 L 715.776 563.2 Z" p-id="2459" /></svg>