<svg xmlns="http://www.w3.org/2000/svg" class="icon" viewBox="0 0 1030 1024" width="200" height="200" t="1593496305762" version="1.1" p-id="2683"><path fill="" d="M 215.559 367.754 a 29.5245 29.5245 0 0 1 -20.8943 -8.66052 L 8.66052 173.089 a 29.5396 29.5396 0 0 1 0 -41.7885 l 122.64 -122.64 a 29.5396 29.5396 0 0 1 41.7885 0 l 186.004 185.974 a 29.5396 29.5396 0 0 1 0 41.7885 l -122.64 122.64 a 29.5245 29.5245 0 0 1 -20.8943 8.6908 Z M 71.3433 152.195 l 144.201 144.201 l 80.8668 -80.882 l -144.185 -144.185 Z" p-id="2684" /><path fill="" d="M 303.769 237.453 l 172.605 172.605 l 145.851 -145.745 A 207.428 207.428 0 0 1 904.812 19.7738 l 57.8377 24.9368 l -99.7473 99.6565 l -0.378519 24.2252 l 27.2534 -0.378519 l 98.309 -98.2181 l 24.9368 57.9286 a 207.247 207.247 0 0 1 -190.304 289.597 a 208.806 208.806 0 0 1 -54.0979 -7.10102 l -145.866 145.851 l 86.7111 86.7111 l 73.569 -73.569 l 60.4268 60.4268 l -24.634 24.5432 l 166.018 166.034 a 112.193 112.193 0 0 1 0 158.539 a 111.951 111.951 0 0 1 -158.539 0 L 660.379 813.029 l -24.5583 24.5583 l -60.4268 -60.4268 l 73.569 -73.569 l -86.7717 -86.802 l -145.942 145.851 A 207.428 207.428 0 0 1 133.844 1007.01 l -57.9286 -24.846 l 98.309 -98.309 l 0.378519 -27.2534 l -24.2252 0.287674 l -99.7473 99.7473 l -25.0277 -57.7317 a 207.428 207.428 0 0 1 244.372 -282.633 l 145.851 -145.851 l -172.605 -172.605 m 428.484 454.723 L 862.266 943.088 a 61.314 61.314 0 0 0 86.7111 -86.7111 L 758.492 665.8 l -37.5945 37.5945 Z M 165.216 964.724 a 156.631 156.631 0 0 0 198.344 -200.645 l -5.37497 -15.1408 L 550.836 556.272 l 204.067 -204.067 l 15.1408 5.37497 A 156.601 156.601 0 0 0 970.705 159.129 l -59.5638 59.594 l -100.126 1.51408 l 1.34753 -97.1583 L 873.561 62.0771 a 156.601 156.601 0 0 0 -198.556 200.645 l 5.46582 15.1408 l -204.052 203.976 l -192.651 192.621 l -15.1408 -5.46582 A 156.631 156.631 0 0 0 67.8609 867.566 l 61.093 -61.093 l 97.1128 -1.34753 l -1.34753 100.035 Z" p-id="2685" /></svg>