<svg xmlns="http://www.w3.org/2000/svg" class="icon" viewBox="0 0 1024 1024" width="200" height="200" t="1601014195380" p-id="1331" version="1.1"><path d="M 105.165 877.701 h 813.671 a 73.1497 73.1497 0 0 1 0 146.267 H 105.165 a 73.1497 73.1497 0 1 1 0 -146.267 Z M 504.608 100.573 c 1.15196 1.27996 1.79194 2.49592 3.03991 3.80788 c 25.1192 27.8391 60.0301 65.8859 102.813 112.7 c 36.7989 39.3588 72.7977 78.5575 100.957 108.381 L 310.694 740.777 l -25.6632 25.3432 a 141.372 141.372 0 0 1 -99.7729 41.1827 H 70.7978 c -21.3433 0 -38.5268 -17.6634 -38.5268 -39.9028 v -116.476 a 153.275 153.275 0 0 1 45.2466 -108.925 l 21.4713 -21.4393 L 504.608 100.541 Z m 61.1501 -62.0781 A 121.084 121.084 0 0 1 653.244 0.895972 c 32.959 0 64.51 13.5356 87.4853 37.5348 l 36.7668 38.0788 c 48.3825 50.0464 48.3825 131.132 0 181.05 l -4.28787 5.11984 a 19602.3 19602.3 0 0 1 -207.45 -224.217 Z" p-id="1332" /></svg>